# Blender v2.77 (sub 0) OBJ File: ''
# www.blender.org
o marker
v -0.334718 -0.277521 0.000573
v -0.306533 -0.270372 0.000573
v -0.310665 -0.216930 0.000573
v -0.346236 -0.243937 0.000573
v -0.521994 0.000000 0.000573
v -0.452884 -0.313952 0.000573
v -0.407185 -0.313952 0.000573
v -0.474540 0.000000 0.000573
v -0.460111 -0.348836 0.000573
v -0.424380 -0.348836 0.000573
v -0.467339 -0.383719 0.000573
v -0.441576 -0.383719 0.000573
v -0.415814 -0.383719 0.000573
v -0.388650 -0.348836 0.000573
v -0.330196 -0.398963 0.000573
v -0.316498 -0.379323 0.000573
v -0.216087 -0.292901 0.000573
v -0.216087 -0.325075 0.000573
v -0.360982 0.000000 0.000573
v -0.408436 0.000000 0.000573
v 0.334718 -0.277521 0.000573
v 0.346235 -0.243937 0.000573
v 0.310665 -0.216930 0.000573
v 0.306533 -0.270372 0.000573
v 0.521993 0.000000 0.000573
v 0.474539 0.000000 0.000573
v 0.407184 -0.313952 0.000573
v 0.452884 -0.313952 0.000573
v 0.460111 -0.348836 0.000573
v 0.424380 -0.348836 0.000573
v 0.467338 -0.383719 0.000573
v 0.441576 -0.383719 0.000573
v 0.388649 -0.348836 0.000573
v 0.415814 -0.383719 0.000573
v 0.330196 -0.398963 0.000573
v 0.316498 -0.379323 0.000573
v 0.216087 -0.292901 0.000573
v 0.216087 -0.325075 0.000573
v 0.360981 0.000000 0.000573
v 0.408435 0.000000 0.000573
v -0.334718 0.277520 0.000573
v -0.346236 0.243937 0.000573
v -0.310665 0.216930 0.000573
v -0.306533 0.270371 0.000573
v -0.407185 0.313952 0.000573
v -0.452884 0.313952 0.000573
v -0.460111 0.348835 0.000573
v -0.424380 0.348835 0.000573
v -0.467339 0.383719 0.000573
v -0.441576 0.383719 0.000573
v -0.388650 0.348835 0.000573
v -0.415814 0.383719 0.000573
v -0.330196 0.398962 0.000573
v -0.316498 0.379322 0.000573
v -0.216087 0.292900 0.000573
v -0.216087 0.325075 0.000573
v 0.334718 0.277520 0.000573
v 0.306533 0.270371 0.000573
v 0.310665 0.216930 0.000573
v 0.346235 0.243937 0.000573
v 0.452884 0.313952 0.000573
v 0.407184 0.313952 0.000573
v 0.460111 0.348835 0.000573
v 0.424380 0.348835 0.000573
v 0.467338 0.383719 0.000573
v 0.441576 0.383719 0.000573
v 0.415814 0.383719 0.000573
v 0.388649 0.348835 0.000573
v 0.330196 0.398962 0.000573
v 0.316498 0.379322 0.000573
v 0.216087 0.292900 0.000573
v 0.216087 0.325075 0.000573
v -0.334718 -0.277521 -0.000573
v -0.306533 -0.270372 -0.000573
v -0.310665 -0.216930 -0.000573
v -0.346236 -0.243937 -0.000573
v -0.521994 -0.000000 -0.000573
v -0.452884 -0.313952 -0.000573
v -0.407185 -0.313952 -0.000573
v -0.474540 -0.000000 -0.000573
v -0.460111 -0.348836 -0.000573
v -0.424380 -0.348836 -0.000573
v -0.467339 -0.383719 -0.000573
v -0.441576 -0.383719 -0.000573
v -0.415814 -0.383719 -0.000573
v -0.388650 -0.348836 -0.000573
v -0.330196 -0.398963 -0.000573
v -0.316498 -0.379323 -0.000573
v -0.216087 -0.292901 -0.000573
v -0.216087 -0.325075 -0.000573
v -0.360982 -0.000000 -0.000573
v -0.408436 -0.000000 -0.000573
v 0.334718 -0.277521 -0.000573
v 0.346235 -0.243937 -0.000573
v 0.310665 -0.216930 -0.000573
v 0.306533 -0.270372 -0.000573
v 0.521993 -0.000000 -0.000573
v 0.474539 -0.000000 -0.000573
v 0.407184 -0.313952 -0.000573
v 0.452884 -0.313952 -0.000573
v 0.460111 -0.348836 -0.000573
v 0.424380 -0.348836 -0.000573
v 0.467338 -0.383719 -0.000573
v 0.441576 -0.383719 -0.000573
v 0.388649 -0.348836 -0.000573
v 0.415814 -0.383719 -0.000573
v 0.330196 -0.398963 -0.000573
v 0.316498 -0.379323 -0.000573
v 0.216087 -0.292901 -0.000573
v 0.216087 -0.325075 -0.000573
v 0.360981 -0.000000 -0.000573
v 0.408435 -0.000000 -0.000573
v -0.334718 0.277520 -0.000573
v -0.346236 0.243937 -0.000573
v -0.310665 0.216930 -0.000573
v -0.306533 0.270371 -0.000573
v -0.407185 0.313952 -0.000573
v -0.452884 0.313952 -0.000573
v -0.460111 0.348835 -0.000573
v -0.424380 0.348835 -0.000573
v -0.467339 0.383719 -0.000573
v -0.441576 0.383719 -0.000573
v -0.388650 0.348835 -0.000573
v -0.415814 0.383719 -0.000573
v -0.330196 0.398962 -0.000573
v -0.316498 0.379322 -0.000573
v -0.216087 0.292900 -0.000573
v -0.216087 0.325075 -0.000573
v 0.334718 0.277520 -0.000573
v 0.306533 0.270371 -0.000573
v 0.310665 0.216930 -0.000573
v 0.346235 0.243937 -0.000573
v 0.452884 0.313952 -0.000573
v 0.407184 0.313952 -0.000573
v 0.460111 0.348835 -0.000573
v 0.424380 0.348835 -0.000573
v 0.467338 0.383719 -0.000573
v 0.441576 0.383719 -0.000573
v 0.415814 0.383719 -0.000573
v 0.388649 0.348835 -0.000573
v 0.330196 0.398962 -0.000573
v 0.316498 0.379322 -0.000573
v 0.216087 0.292900 -0.000573
v 0.216087 0.325075 -0.000573
vn 0.000000 0.000000 1.000000
vn -0.000000 -0.000000 -1.000000
usemtl None
s 1
f 1//1 2//1 3//1 4//1
f 5//1 6//1 7//1 8//1
f 9//1 10//1 7//1 6//1
f 11//1 12//1 10//1 9//1
f 12//1 13//1 14//1 10//1
f 15//1 16//1 14//1 13//1
f 17//1 3//1 2//1 18//1
f 19//1 20//1 4//1 3//1
f 21//1 22//1 23//1 24//1
f 25//1 26//1 27//1 28//1
f 29//1 28//1 27//1 30//1
f 31//1 29//1 30//1 32//1
f 32//1 30//1 33//1 34//1
f 35//1 34//1 33//1 36//1
f 37//1 38//1 24//1 23//1
f 39//1 23//1 22//1 40//1
f 41//1 42//1 43//1 44//1
f 5//1 8//1 45//1 46//1
f 47//1 46//1 45//1 48//1
f 49//1 47//1 48//1 50//1
f 50//1 48//1 51//1 52//1
f 53//1 52//1 51//1 54//1
f 55//1 56//1 44//1 43//1
f 19//1 43//1 42//1 20//1
f 57//1 58//1 59//1 60//1
f 25//1 61//1 62//1 26//1
f 63//1 64//1 62//1 61//1
f 65//1 66//1 64//1 63//1
f 66//1 67//1 68//1 64//1
f 69//1 70//1 68//1 67//1
f 71//1 59//1 58//1 72//1
f 39//1 40//1 60//1 59//1
f 73//2 76//2 75//2 74//2
f 77//2 80//2 79//2 78//2
f 81//2 78//2 79//2 82//2
f 83//2 81//2 82//2 84//2
f 84//2 82//2 86//2 85//2
f 87//2 85//2 86//2 88//2
f 89//2 90//2 74//2 75//2
f 91//2 75//2 76//2 92//2
f 93//2 96//2 95//2 94//2
f 97//2 100//2 99//2 98//2
f 101//2 102//2 99//2 100//2
f 103//2 104//2 102//2 101//2
f 104//2 106//2 105//2 102//2
f 107//2 108//2 105//2 106//2
f 109//2 95//2 96//2 110//2
f 111//2 112//2 94//2 95//2
f 113//2 116//2 115//2 114//2
f 77//2 118//2 117//2 80//2
f 119//2 120//2 117//2 118//2
f 121//2 122//2 120//2 119//2
f 122//2 124//2 123//2 120//2
f 125//2 126//2 123//2 124//2
f 127//2 115//2 116//2 128//2
f 91//2 92//2 114//2 115//2
f 129//2 132//2 131//2 130//2
f 97//2 98//2 134//2 133//2
f 135//2 133//2 134//2 136//2
f 137//2 135//2 136//2 138//2
f 138//2 136//2 140//2 139//2
f 141//2 139//2 140//2 142//2
f 143//2 144//2 130//2 131//2
f 111//2 131//2 132//2 112//2
